<svg width="920" height="574" viewBox="0 0 920 574" fill="none" xmlns="http://www.w3.org/2000/svg">
<g filter="url(#filter0_d_65_15171)">
<g clip-path="url(#clip0_65_15171)">
<rect x="4" width="912" height="566" rx="5" fill="#00386E"/>
<path d="M514.213 460.741C519.421 460.741 523.643 456.517 523.643 451.307C523.643 446.098 519.421 441.874 514.213 441.874C509.005 441.874 504.784 446.098 504.784 451.307C504.784 456.517 509.005 460.741 514.213 460.741Z" fill="#73ADD8"/>
<path d="M480.407 446.239C480.407 448.238 478.789 449.871 476.776 449.871C474.778 449.871 473.145 448.252 473.145 446.239C473.145 444.24 474.764 442.606 476.776 442.606C478.789 442.62 480.407 444.24 480.407 446.239Z" fill="#2C5791"/>
<path d="M440.212 394.651C440.212 396.256 438.917 397.552 437.313 397.552C435.708 397.552 434.414 396.256 434.414 394.651C434.414 393.046 435.708 391.751 437.313 391.751C438.917 391.751 440.212 393.06 440.212 394.651Z" fill="#2C5791"/>
<path d="M412.655 422.472C412.655 423.669 411.684 424.655 410.473 424.655C409.277 424.655 408.292 423.683 408.292 422.472C408.292 421.262 409.263 420.29 410.473 420.29C411.67 420.29 412.655 421.262 412.655 422.472Z" fill="#2C5791"/>
<path d="M433.681 501.558C435.415 501.558 436.82 500.152 436.82 498.418C436.82 496.684 435.415 495.278 433.681 495.278C431.948 495.278 430.543 496.684 430.543 498.418C430.543 500.152 431.948 501.558 433.681 501.558Z" fill="#2C5791"/>
<path d="M338.668 367.323C338.668 369.322 337.049 370.955 335.036 370.955C333.038 370.955 331.405 369.336 331.405 367.323C331.405 365.323 333.024 363.69 335.036 363.69C337.049 363.704 338.668 365.323 338.668 367.323Z" fill="#73ADD8"/>
<path d="M250.184 482.452C254.591 482.452 258.164 478.877 258.164 474.469C258.164 470.06 254.591 466.485 250.184 466.485C245.776 466.485 242.204 470.06 242.204 474.469C242.204 478.877 245.776 482.452 250.184 482.452Z" fill="#73ADD8"/>
<path d="M272.914 436.256C272.914 438.397 271.182 440.128 269.043 440.128C266.904 440.128 265.173 438.397 265.173 436.256C265.173 434.116 266.904 432.385 269.043 432.385C271.182 432.385 272.914 434.116 272.914 436.256Z" fill="#2C5791"/>
<path d="M219.727 307.583C219.727 311.328 216.701 314.355 212.958 314.355C209.214 314.355 206.188 311.328 206.188 307.583C206.188 303.838 209.214 300.811 212.958 300.811C216.687 300.811 219.727 303.852 219.727 307.583Z" fill="#2C5791"/>
<path d="M104.869 293.194C106.47 293.194 107.768 291.895 107.768 290.293C107.768 288.691 106.47 287.393 104.869 287.393C103.268 287.393 101.97 288.691 101.97 290.293C101.97 291.895 103.268 293.194 104.869 293.194Z" fill="#2C5791"/>
<path d="M165.542 187.526C169.273 187.526 172.298 184.5 172.298 180.768C172.298 177.036 169.273 174.01 165.542 174.01C161.811 174.01 158.787 177.036 158.787 180.768C158.787 184.5 161.811 187.526 165.542 187.526Z" fill="#73ADD8"/>
<path d="M175.957 205.759C175.957 207.223 174.761 208.42 173.297 208.42C171.834 208.42 170.637 207.223 170.637 205.759C170.637 204.295 171.834 203.098 173.297 203.098C174.775 203.098 175.957 204.295 175.957 205.759Z" fill="#73ADD8"/>
<path d="M83.8563 74.4388C83.8563 79.775 79.5215 84.1115 74.1874 84.1115C68.8534 84.1115 64.5186 79.775 64.5186 74.4388C64.5186 69.1026 68.8534 64.7661 74.1874 64.7661C79.5215 64.7661 83.8563 69.1026 83.8563 74.4388Z" fill="#2C5791"/>
<path d="M98.2822 188.216C98.2822 190.215 96.6637 191.849 94.6511 191.849C92.6526 191.849 91.02 190.229 91.02 188.216C91.02 186.217 92.6385 184.583 94.6511 184.583C96.6637 184.598 98.2822 186.217 98.2822 188.216Z" fill="#2C5791"/>
<path d="M148.161 390.54C148.161 392.539 146.542 394.173 144.53 394.173C142.531 394.173 140.898 392.553 140.898 390.54C140.898 388.541 142.517 386.907 144.53 386.907C146.542 386.922 148.161 388.541 148.161 390.54Z" fill="#2C5791"/>
<path d="M270.493 226.653C270.493 229.343 268.311 231.525 265.623 231.525C262.935 231.525 260.753 229.343 260.753 226.653C260.753 223.964 262.935 221.782 265.623 221.782C268.311 221.782 270.493 223.964 270.493 226.653Z" fill="#2C5791"/>
<mask id="mask0_65_15171" style="mask-type:luminance" maskUnits="userSpaceOnUse" x="4" y="-223" width="912" height="789">
<path d="M916 -222.458H4V566H916V-222.458Z" fill="white"/>
</mask>
<g mask="url(#mask0_65_15171)">
<path d="M733.691 41.7073C771.01 23.0523 817.176 21.507 859.256 29.5965C901.335 37.6861 940.332 54.5906 978.837 71.3532C984.838 59.3687 992.116 48.2514 998.117 36.2669L684.79 -51.3938C644.243 -62.7319 602.218 -74.2276 559.828 -70.3799C509.996 -65.8541 463.667 -38.6997 440.356 -0.364853C422.608 28.8239 417.519 63.5633 394.738 90.0082C362.726 127.16 303.209 138.609 249.821 134.619C196.432 130.645 145.342 114.23 92.4095 106.976C39.4771 99.722 -19.6935 103.239 -60.0951 133.673C-56.8484 151.177 -62.9953 161.852 -59.7485 179.356C-43.1319 150.972 -3.80645 134.745 32.7283 130.866C69.263 126.987 106.09 133.531 142.077 140.186C161.12 143.702 182.424 148.685 191.781 163.445C201.868 179.372 193.167 199.257 181.895 214.569C134.781 278.497 40.079 313.284 -45.8497 298.208C-44.2263 305.21 -41.0525 316.658 -39.4292 323.66C22.0579 339.24 88.9075 320.9 143.591 292.027C198.275 263.154 244.896 224.204 297.719 192.855C350.56 161.506 413.488 137.331 477.073 144.238C543.083 151.413 599.317 191.467 636.363 239.232C651.064 258.186 663.723 278.891 683.769 293.746C706.514 310.603 736.5 318.156 766.013 322.54C827.628 331.67 891.577 328.737 951.732 314.025C954.815 305.888 960.561 295.701 963.643 287.564C906.68 305.778 842.092 308.947 785.384 290.166C728.675 271.369 681.397 229.076 668.483 177.764C655.533 126.466 681.106 67.9944 733.691 41.7073ZM639.591 39.9884C631.712 58.1545 622.081 76.1786 606.851 90.4182C566.795 127.886 491.355 115.602 473.936 64.951C464.323 37.008 476.927 5.05973 502.427 -14.021C527.908 -33.1016 564.497 -39.4881 597.384 -33.1332C618.013 -29.1436 639.081 -18.7517 645.41 -1.31099C650.28 12.1874 645.319 26.7423 639.591 39.9884Z" fill="#2C5791"/>
</g>
<mask id="mask1_65_15171" style="mask-type:luminance" maskUnits="userSpaceOnUse" x="4" y="-223" width="912" height="789">
<path d="M916 -222.458H4V566H916V-222.458Z" fill="white"/>
</mask>
<g mask="url(#mask1_65_15171)">
<path d="M666.567 522.272C660.238 522.698 654.383 525.378 648.109 526.277C645.956 526.577 643.585 526.64 641.743 525.647C639.882 524.653 638.897 522.272 640.265 520.79C641.177 519.796 642.746 519.512 644.187 519.307C649.112 518.566 654.037 517.825 658.943 517.084C660.95 516.784 663.157 516.39 664.415 515.002C665.747 513.536 665.564 511.328 664.397 509.735C663.248 508.159 661.314 507.118 659.326 506.377C656.663 505.383 653.781 504.847 651.264 503.601C648.747 502.355 646.558 500.148 646.722 497.656C646.886 495.165 650.407 493.004 652.815 494.392C654.657 495.449 654.985 497.861 656.864 498.871C658.597 499.785 660.84 499.139 662.828 499.47C665.619 499.943 667.443 502.214 668.957 504.295C672.003 508.49 675.14 513.536 672.97 518.109C676.235 519.181 679.937 517.005 681.269 514.214C682.6 511.423 682.199 508.285 681.78 505.289C681.159 500.857 680.448 496.253 677.676 492.484C674.137 487.706 667.261 484.946 660.749 485.64C658.706 485.861 656.663 486.397 654.602 486.239C652.541 486.082 650.352 484.994 650.024 483.227C649.477 480.247 654.055 478.686 657.557 478.733C661.041 478.765 665.455 478.828 666.914 476.084C667.662 474.712 667.297 473.088 667.68 471.606C668.063 470.123 669.997 468.688 671.438 469.556C672.386 470.139 672.422 471.322 672.368 472.315C672.185 475.453 671.985 478.591 671.802 481.729C675.14 480.468 679.299 480.988 682.071 483.022C684.844 485.057 686.139 488.51 685.263 491.569C684.716 493.462 683.713 496.016 685.719 496.931C687.106 497.577 688.784 496.647 689.86 495.654C693.982 491.774 695.186 485.751 692.797 480.894C691.921 479.127 690.626 477.503 690.097 475.643C689.55 473.782 690.042 471.479 691.976 470.533C693.927 469.587 696.518 470.455 697.904 471.968C699.29 473.482 699.783 475.453 700.22 477.346C701.917 484.568 703.248 493.036 697.503 498.476C696.153 499.754 694.475 500.779 693.289 502.182C692.103 503.57 691.502 505.557 692.559 507.023C694.365 509.499 698.743 508.474 701.771 507.149C704.817 505.825 707.899 504.469 710.325 502.403C712.751 500.337 714.429 497.404 713.919 494.487C713.59 492.61 712.405 490.939 711.438 489.22C710.471 487.517 709.687 485.577 710.234 483.732C710.781 481.887 713.171 480.373 715.195 481.099C718.789 482.407 717.877 488.715 721.762 488.778C723.659 488.81 724.863 487.122 725.993 485.814C727.143 484.505 729.477 483.417 730.754 484.615C731.721 485.53 731.174 486.965 730.572 488.1C724.498 499.564 717.256 512.038 703.704 516.705C700.494 517.809 696.882 518.519 694.584 520.742C691.337 523.88 689.659 533.578 682.382 530.172C679.992 529.053 678.879 525.867 676.527 524.432C673.736 522.761 669.96 522.035 666.567 522.272Z" fill="#2C5791"/>
<path d="M2.92375 490.182C2.92375 490.182 85.934 500.778 121.776 517.1C157.617 533.405 281.193 551.35 307.586 551.35C333.998 551.35 426.438 560.323 447.195 553.794C467.953 547.266 534.912 530.141 581.132 540.753C627.352 551.35 716.017 515.475 752.807 492.642C789.597 469.808 931.084 470.628 931.084 470.628L928.257 569.295L-4.60938 568.475L2.92375 490.182Z" fill="#2C5791"/>
<path d="M96.3676 514.261C97.845 512.022 98.0456 509.199 96.9148 506.818C95.7656 504.437 93.3032 502.576 90.4213 501.914C88.9986 501.583 87.5029 501.535 86.0802 501.236C84.6575 500.936 83.1983 500.321 82.5052 499.201C81.958 498.35 81.9215 497.325 81.6114 496.379C80.9 494.36 78.9119 492.91 77.0149 491.585C76.1029 490.938 77.1608 489.409 78.3099 489.141C79.4408 488.873 80.6447 489.346 81.5384 490.024C83.0159 491.159 83.8184 492.815 84.6575 494.36C85.4965 495.922 86.518 497.514 88.2325 498.366C89.9471 499.217 92.5554 498.965 93.4309 497.435C94.1788 496.127 93.4309 494.55 92.446 493.351C91.461 492.153 90.2207 491.049 89.8741 489.614C89.5093 488.147 90.1659 486.633 89.9653 485.151C89.637 482.817 87.284 481.146 85.1317 479.711C83.9826 478.954 85.0952 477.062 86.445 476.636C87.7947 476.21 89.3451 476.699 90.4213 477.535C91.4792 478.37 92.1541 479.506 92.8108 480.625C93.5039 481.808 94.2152 483.085 94.0511 484.41C93.9052 485.608 93.0479 486.87 93.7228 487.927C94.4159 489.015 96.404 488.999 97.4802 488.163C98.5564 487.327 98.9212 486.018 99.1036 484.788C99.286 483.558 99.3772 482.265 100.089 481.177C100.8 480.089 102.369 479.301 103.7 479.79C103.372 483.306 103.737 486.618 101.913 489.756C100.49 492.2 98.6293 494.502 97.9909 497.183C97.3525 499.864 98.4469 503.128 101.384 504.137C103.974 505.02 107.02 503.79 108.716 501.866C110.412 499.958 111.069 497.53 111.689 495.18C112.601 491.68 113.477 487.832 111.489 484.678C110.558 483.196 108.99 481.682 109.555 480.074C110.248 478.087 113.841 478.008 115.501 479.522C117.161 481.035 117.398 483.29 117.544 485.372C119.241 484.158 121.101 482.896 123.29 482.723C125.479 482.565 127.977 484.079 127.649 485.971C127.321 487.816 124.858 488.605 122.943 489.472C117.38 491.979 114.571 497.372 112.145 502.371C111.525 503.664 110.996 505.367 112.218 506.282C113.167 506.991 114.681 506.723 115.629 506.045C116.577 505.351 117.125 504.358 117.745 503.412C121.083 498.271 127.138 494.518 133.833 493.414C135.474 493.146 137.535 493.193 138.338 494.455C139.086 495.622 138.137 497.167 136.787 497.83C135.438 498.492 133.814 498.539 132.282 498.697C129.729 498.949 127.084 499.611 125.369 501.267C123.655 502.907 123.308 505.761 125.205 507.26C126.737 508.474 129.127 508.411 131.133 507.906C133.121 507.386 135 506.487 137.043 506.203C139.104 505.919 141.548 506.487 142.405 508.127C143.445 510.114 141.475 512.495 139.067 513.141C136.66 513.804 134.07 513.268 131.589 512.826C124.202 511.486 116.65 510.902 109.117 511.06C107.585 511.091 105.798 511.296 105.068 512.463C104.612 513.189 104.74 514.072 104.557 514.876C104.156 516.548 102.204 517.841 100.216 517.714C98.1733 517.557 96.477 515.98 96.3676 514.261Z" fill="#2C5791"/>
<path d="M301.877 560.686C298.193 560.386 295.238 557.106 295.785 553.952C296.332 550.877 299.579 548.512 299.853 545.421C300.072 542.993 298.394 540.69 298.357 538.246C298.321 535.881 299.798 533.72 300.801 531.528C302.844 527.066 302.99 521.988 301.221 517.447C305.726 521.231 307.185 526.987 305.234 532.143C304.303 534.588 302.607 537.032 303.245 539.539C303.811 541.747 306.109 543.513 306.091 545.768C306.054 548.811 301.786 551.145 302.479 554.141C302.698 555.072 303.391 555.86 303.957 556.68C304.522 557.5 304.978 558.478 304.65 559.393C304.322 560.307 302.716 561.316 301.877 560.686Z" fill="#2C5791"/>
<path d="M309.648 555.214C309.629 553.258 310.669 551.445 311.636 549.679C312.603 547.913 313.533 546.036 313.296 544.097C313.022 541.747 311.07 539.728 310.724 537.395C310.414 535.392 311.308 533.405 311.764 531.418C312.858 526.798 311.672 522.02 311.873 517.321C312.055 512.606 314.262 507.354 319.37 505.683C315.193 508.285 315.174 513.662 316.415 517.999C317.655 522.319 319.753 526.814 318.293 531.087C317.71 532.837 316.524 534.493 316.506 536.322C316.451 539.744 320.428 542.662 319.734 546.036C319.205 548.559 316.159 550.388 316.086 552.959C316.05 554.015 316.561 555.025 316.889 556.05C317.217 557.075 317.345 558.257 316.634 559.125C314.208 562.168 309.666 557.421 309.648 555.214Z" fill="#2C5791"/>
<path d="M326.447 560.197C323.784 559.535 322.617 556.712 322.872 554.331C323.146 551.934 324.386 549.71 324.86 547.345C325.225 545.484 325.079 543.592 324.952 541.7C324.751 539.019 324.569 536.338 324.368 533.657C324.167 530.898 323.985 528.075 324.824 525.41C325.681 522.745 327.761 520.206 330.807 519.355C327.815 520.679 327.56 524.338 328.472 527.129C329.384 529.92 331.098 532.695 330.551 535.565C330.296 536.969 329.493 538.293 329.384 539.713C329.22 542.015 330.861 544.097 331.828 546.241C333.251 549.395 333.251 553.038 331.792 556.176C331.244 557.343 330.478 558.494 329.256 559.172C328.034 559.866 326.301 559.96 325.189 559.156L326.447 560.197Z" fill="#2C5791"/>
<path d="M489.949 550.704C486.301 548.433 485.171 543.623 487.505 540.296C488.964 538.215 491.664 536.228 490.861 533.91C490.387 532.538 488.819 531.67 487.998 530.425C486.083 527.492 488.855 524.007 489.439 520.679C489.895 518.062 488.946 515.428 488.618 512.795C488.29 510.161 488.855 507.102 491.409 505.635C489.457 507.307 489.986 510.524 491.117 512.684C492.248 514.845 493.889 516.958 493.835 519.339C493.762 521.752 491.901 524.007 492.248 526.403C492.649 529.179 495.877 531.118 496.461 533.862C497.264 537.615 492.85 541.305 494.199 544.948C494.892 546.809 497.008 548.212 497.081 550.168C497.136 551.587 495.914 552.959 494.309 553.274C492.704 553.558 490.606 551.997 489.949 550.704Z" fill="#2C5791"/>
<path d="M503.776 541.447C504.706 538.262 506.968 535.203 506.348 531.954C505.964 529.888 504.451 528.138 503.593 526.183C502.59 523.896 502.499 521.405 502.426 518.96C502.353 516.721 504.341 514.277 504.286 512.054C504.213 509.452 501.313 507.307 500.803 504.752C500.219 501.725 503.958 498.823 504.031 495.732C504.086 493.541 502.171 491.585 502.298 489.283C502.481 485.593 505.071 481.666 508.299 479.522C505.052 481.162 505.253 485.341 506.731 488.337C508.208 491.333 510.561 494.266 510.214 497.499C509.904 500.321 507.551 503.002 508.372 505.746C509.193 508.505 513.023 510.272 513.06 513.126C513.096 515.397 510.652 517.194 510.397 519.449C509.886 523.707 517.018 526.451 516.58 530.708C516.325 533.168 513.552 534.919 512.896 537.332C512.33 539.397 513.406 541.51 514.245 543.513C515.085 545.516 515.632 547.913 514.209 549.631C510.16 554.536 502.627 545.39 503.776 541.447Z" fill="#2C5791"/>
<path d="M525.846 546.714C522.508 545.121 520.921 541.258 522.344 538.199C523.293 536.149 525.445 534.272 524.934 532.096C524.423 529.936 521.396 528.58 521.323 526.372C521.25 524.18 524.113 522.761 524.843 520.663C525.554 518.613 524.095 516.532 523.22 514.529C520.994 509.467 522.691 503.302 527.305 499.627C524.551 501.425 525.244 505.777 526.667 508.505C528.09 511.234 530.169 513.993 529.64 516.942C529.093 519.922 525.937 522.65 527.05 525.505C527.999 527.965 531.847 529.289 531.829 531.891C531.792 534.509 527.688 536.07 527.707 538.688C527.725 541.021 531.026 542.583 531.045 544.901C531.063 546.225 529.804 547.455 528.29 547.613C526.74 547.786 526.211 547.991 525.846 546.714Z" fill="#2C5791"/>
</g>
</g>
<rect x="4.5" y="0.5" width="911" height="565" rx="4.5" stroke="black"/>
</g>
<defs>
<filter id="filter0_d_65_15171" x="0" y="0" width="920" height="574" filterUnits="userSpaceOnUse" color-interpolation-filters="sRGB">
<feFlood flood-opacity="0" result="BackgroundImageFix"/>
<feColorMatrix in="SourceAlpha" type="matrix" values="0 0 0 0 0 0 0 0 0 0 0 0 0 0 0 0 0 0 127 0" result="hardAlpha"/>
<feOffset dy="4"/>
<feGaussianBlur stdDeviation="2"/>
<feComposite in2="hardAlpha" operator="out"/>
<feColorMatrix type="matrix" values="0 0 0 0 0 0 0 0 0 0 0 0 0 0 0 0 0 0 0.25 0"/>
<feBlend mode="normal" in2="BackgroundImageFix" result="effect1_dropShadow_65_15171"/>
<feBlend mode="normal" in="SourceGraphic" in2="effect1_dropShadow_65_15171" result="shape"/>
</filter>
<clipPath id="clip0_65_15171">
<rect x="4" width="912" height="566" rx="5" fill="white"/>
</clipPath>
</defs>
</svg>
